<svg xmlns="http://www.w3.org/2000/svg" width="25.038" height="28.615" viewBox="0 0 25.038 28.615">
  <path id="Icon_awesome-discord" data-name="Icon awesome-discord" d="M16.611,13.592A1.465,1.465,0,1,1,15.152,12,1.524,1.524,0,0,1,16.611,13.592ZM9.929,12a1.594,1.594,0,0,0,0,3.176,1.524,1.524,0,0,0,1.459-1.588A1.515,1.515,0,0,0,9.929,12ZM25.038,2.947V28.615c-3.6-3.185-2.452-2.131-6.639-6.024l.758,2.647H2.933A2.94,2.94,0,0,1,0,22.291V2.947A2.94,2.94,0,0,1,2.933,0H22.105A2.94,2.94,0,0,1,25.038,2.947ZM20.961,16.511A19.16,19.16,0,0,0,18.9,8.17a7.075,7.075,0,0,0-4.02-1.5l-.2.229a9.522,9.522,0,0,1,3.563,1.817A12.157,12.157,0,0,0,7.554,8.3c-.529.243-.844.415-.844.415a9.652,9.652,0,0,1,3.763-1.874l-.143-.172a7.075,7.075,0,0,0-4.02,1.5,19.16,19.16,0,0,0-2.06,8.341,5.188,5.188,0,0,0,4.364,2.175s.529-.644.959-1.188a4.45,4.45,0,0,1-2.5-1.688c.21.147.558.338.587.358a10.429,10.429,0,0,0,8.928.5,8.187,8.187,0,0,0,1.645-.844,4.515,4.515,0,0,1-2.59,1.7c.429.544.944,1.159.944,1.159A5.23,5.23,0,0,0,20.961,16.511Z" fill="#fff"/>
</svg>
